<?xml version="1.0" encoding="utf-8"?>
<!-- Generator: Adobe Illustrator 16.0.0, SVG Export Plug-In . SVG Version: 6.00 Build 0)  -->
<!DOCTYPE svg PUBLIC "-//W3C//DTD SVG 1.1//EN" "http://www.w3.org/Graphics/SVG/1.1/DTD/svg11.dtd">
<svg version="1.1" id="Layer_1" xmlns="http://www.w3.org/2000/svg" xmlns:xlink="http://www.w3.org/1999/xlink" x="0px" y="0px"
	 width="1024px" height="1024px" viewBox="0 0 1024 1024" enable-background="new 0 0 1024 1024" xml:space="preserve">
<path d="M428.838,715.857l-28.604-75.186H156.703l-28.602,76.818c-11.176,29.967-20.704,50.193-28.603,60.679
	c-7.906,10.489-21.516,18.054-39.494,18.054c-15.26,0-33.178-4.732-44.886-15.901C3.405,769.152,2.657,753.312,2.657,739.147
	c0-8.173,1.362-16.617,4.085-25.333c2.719-8.719,7.215-20.838,13.484-36.367l153.229-388.998
	c4.354-11.169,9.604-24.584,15.733-40.247s12.667-28.672,19.613-39.022c6.945-10.353,16.073-18.729,27.377-25.13
	c11.3-6.401,25.265-9.603,41.883-9.603c16.887,0,30.984,3.201,42.291,9.603c11.3,6.4,20.431,14.643,27.377,24.722
	c6.945,10.076,12.802,20.906,17.57,32.483c4.761,11.578,10.828,27.037,18.182,46.38L539.98,674.177
	c12.259,29.421,18.389,50.807,18.389,64.153c0,13.892-4.317,31.516-15.896,43.091c-11.584,11.578-27.537,13.796-43.881,13.796
	c-9.539,0-17.184-3.018-23.988-6.421c-6.811-3.407-12.532-8.038-17.162-13.895c-4.637-5.855-9.603-14.847-14.914-26.969
	C437.216,735.811,432.651,725.119,428.838,715.857z M188.575,549.553h178.973l-90.304-247.209L188.575,549.553z"/>
<path d="M579.616,726.073V242.275c0-22.335,4.971-39.225,14.913-50.667c9.944-11.441,23.359-17.161,40.249-17.161
	c16.889,0,30.509,5.652,40.862,16.958c10.35,11.304,15.527,28.263,15.527,50.87v483.798c0,22.608-5.245,39.564-15.732,50.871
	c-10.488,11.306-24.041,16.956-40.657,16.956c-16.345,0-29.625-5.855-39.84-17.57C584.724,764.618,579.616,747.864,579.616,726.073z
	"/>
<path d="M767.121,350.15h12.26v-67.012c0-17.979,0.477-32.077,1.431-42.292c0.953-10.216,3.61-19.001,7.968-26.356
	c4.359-7.626,10.624-13.824,18.797-18.592c8.171-4.766,17.297-7.149,27.376-7.149c14.166,0,26.968,5.312,38.409,15.937
	c7.627,7.081,12.463,15.73,14.506,25.945c2.043,10.216,3.064,24.719,3.064,43.517v76.003h40.86c15.801,0,27.854,3.744,36.162,11.237
	c8.309,7.489,12.463,17.094,12.463,28.806c0,14.982-5.925,25.471-17.773,31.464c-11.85,5.993-28.807,8.989-50.872,8.989h-20.84
	V635.77c0,17.434,0.612,30.85,1.838,40.248c1.227,9.397,4.496,17.025,9.809,22.881c5.312,5.855,13.959,8.787,25.946,8.787
	c6.539,0,15.152-4.819,25.589-8.664c10.705-3.944,20.706-4.666,26.918-3.846c9.703,1.282,17.083,4.339,25.269,10.438
	c9.339,6.958,13.367,16.477,13.367,27.1c0,17.98-13.099,37.352-32.712,46.889c-19.612,9.532-47.807,14.299-84.584,14.299
	c-34.867,0-61.29-5.855-79.269-17.57c-17.979-11.712-29.761-27.921-35.346-48.624c-5.584-20.703-8.376-48.352-8.376-82.948V430.646
	h-14.709c-16.072,0-30.623-1.566-40.178-5.191c-15.93-6.042-21.973-21.245-21.973-32.959c0-11.712,3.845-25.27,15.381-32.96
	C727.552,353.103,750.233,350.15,767.121,350.15z"/>
</svg>
