<?xml version="1.0" encoding="utf-8"?>
<!-- Generator: Adobe Illustrator 19.0.0, SVG Export Plug-In . SVG Version: 6.00 Build 0)  -->
<svg version="1.1" id="Layer_1" xmlns="http://www.w3.org/2000/svg" xmlns:xlink="http://www.w3.org/1999/xlink" x="0px" y="0px"
	 viewBox="16 16 64 64"  xml:space="preserve">
<g id="XMLID_1_">
	<polygon id="XMLID_3_" class="st0" points="21.4,21.4 21.4,22.2 73.8,22.2 73.8,73.8 22.2,73.8 22.2,21.4 21.4,21.4 21.4,22.2 
		21.4,21.4 20.5,21.4 20.5,74.6 21.4,75.5 74.6,75.5 75.5,74.6 75.5,21.4 74.6,20.5 21.4,20.5 20.5,21.4 	"/>
	<polygon id="XMLID_4_" class="st0" points="21.4,21.4 21.4,22.2 73.8,22.2 73.8,73.8 22.2,73.8 22.2,21.4 21.4,21.4 21.4,22.2 
		21.4,21.4 20.5,21.4 20.5,74.6 21.4,75.5 74.6,75.5 75.5,74.6 75.5,21.4 74.6,20.5 21.4,20.5 20.5,21.4 	"/>
	<path id="XMLID_5_" class="st0" d="M39.4,43.7v-0.9c-1,0-1.8-0.4-2.4-1c-0.6-0.6-1-1.5-1-2.4c0-1,0.4-1.8,1-2.4
		c0.6-0.6,1.5-1,2.4-1c1,0,1.8,0.4,2.4,1c0.6,0.6,1,1.5,1,2.4v17.2c0,1-0.4,1.8-1,2.4c-0.6,0.6-1.5,1-2.4,1c-1,0-1.8-0.4-2.4-1
		c-0.6-0.6-1-1.5-1-2.4c0-1,0.4-1.8,1-2.4c0.6-0.6,1.5-1,2.4-1h17.2c1,0,1.8,0.4,2.4,1c0.6,0.6,1,1.5,1,2.4c0,1-0.4,1.8-1,2.4
		c-0.6,0.6-1.5,1-2.4,1c-1,0-1.8-0.4-2.4-1c-0.6-0.6-1-1.5-1-2.4V39.4c0-1,0.4-1.8,1-2.4c0.6-0.6,1.5-1,2.4-1c1,0,1.8,0.4,2.4,1
		c0.6,0.6,1,1.5,1,2.4c0,1-0.4,1.8-1,2.4c-0.6,0.6-1.5,1-2.4,1H39.4V43.7v0.9h17.2c2.8,0,5.2-2.3,5.2-5.2c0-2.8-2.3-5.2-5.2-5.2
		c-2.8,0-5.2,2.3-5.2,5.2v17.2c0,2.8,2.3,5.2,5.2,5.2c2.8,0,5.2-2.3,5.2-5.2c0-2.8-2.3-5.2-5.2-5.2H39.4c-2.8,0-5.2,2.3-5.2,5.2
		c0,2.8,2.3,5.2,5.2,5.2c2.8,0,5.2-2.3,5.2-5.2V39.4c0-2.8-2.3-5.2-5.2-5.2c-2.8,0-5.2,2.3-5.2,5.2c0,2.8,2.3,5.2,5.2,5.2V43.7z"/>
</g>
</svg>
